Coordinates
version=1
nRows=65
nColumns=12
inDegrees=yes

Units are S.I. units (second, meters, Newtons, ...)
Angles are in degrees

endheader
time	SC_y	SC_z	SC_x	AC_y	AC_z	AC_x	GH_y	GH_z	GH_yy	EL_x	PS_y
       0.0              -21.79          20.08          21.53          39.25         -15.23         -15.41          103.2          54.65          156.0          37.66          54.61
   0.02195               -21.8          20.08          21.53          39.26         -15.22         -15.41          103.2          54.64          156.0          37.66          54.61
    0.0439               -21.8          20.08          21.53          39.26         -15.22         -15.41          103.2          54.63          156.0          37.67          54.61
   0.06585              -21.81          20.08          21.53          39.26         -15.22         -15.41          103.2          54.62          156.0          37.68           54.6
    0.0878              -21.82          20.08          21.54          39.26         -15.21          -15.4          103.1          54.61          156.0          37.69           54.6
    0.1097              -21.82          20.08          21.54          39.26         -15.21          -15.4          103.1           54.6          156.0           37.7           54.6
    0.1317              -21.83          20.08          21.54          39.26         -15.21          -15.4          103.1          54.58          156.0          37.71          54.59
    0.1536              -21.84          20.08          21.54          39.26          -15.2          -15.4          103.1          54.57          156.0          37.72          54.59
    0.1756              -21.85          20.09          21.54          39.26          -15.2         -15.39          103.1          54.55          156.0          37.73          54.58
    0.1975              -21.86          20.09          21.54          39.26         -15.19         -15.39          103.1          54.53          156.0          37.74          54.58
    0.2195              -21.87          20.09          21.54          39.27         -15.19         -15.39          103.1          54.52          156.0          37.76          54.58
    0.2414              -21.88          20.09          21.54          39.27         -15.18         -15.38          103.1           54.5          156.0          37.77          54.57
    0.2634              -21.89          20.09          21.54          39.27         -15.17         -15.38          103.1          54.48          156.0          37.78          54.56
    0.2853               -21.9           20.1          21.54          39.27         -15.17         -15.37          103.1          54.45          156.0           37.8          54.56
    0.3073              -21.92           20.1          21.54          39.27         -15.16         -15.37          103.1          54.43          156.0          37.82          54.55
    0.3292              -21.93           20.1          21.54          39.28         -15.15         -15.36          103.1           54.4          156.0          37.84          54.55
    0.3512              -21.95           20.1          21.54          39.28         -15.14         -15.36          103.0          54.37          156.0          37.86          54.54
    0.3731              -21.96          20.11          21.54          39.28         -15.14         -15.35          103.0          54.34          156.0          37.88          54.53
    0.3951              -21.98          20.11          21.54          39.28         -15.13         -15.34          103.0          54.31          156.0          37.91          54.52
     0.417               -22.0          20.11          21.54          39.29         -15.11         -15.34          103.0          54.27          156.1          37.93          54.51
     0.439              -22.03          20.12          21.54          39.29          -15.1         -15.33          103.0          54.23          156.1          37.96           54.5
    0.4609              -22.05          20.12          21.55          39.29         -15.09         -15.32          103.0          54.18          156.1           38.0          54.49
    0.4829              -22.08          20.13          21.55           39.3         -15.07         -15.31          102.9          54.13          156.1          38.03          54.48
    0.5048              -22.11          20.13          21.55           39.3         -15.06          -15.3          102.9          54.08          156.1          38.07          54.46
    0.5268              -22.14          20.14          21.55          39.31         -15.04         -15.29          102.9          54.02          156.1          38.12          54.45
    0.5487              -22.18          20.14          21.55          39.31         -15.02         -15.27          102.8          53.95          156.1          38.17          54.43
    0.5707              -22.22          20.15          21.55          39.32          -15.0         -15.26          102.8          53.87          156.2          38.22          54.41
    0.5926              -22.27          20.16          21.56          39.33         -14.97         -15.24          102.8          53.78          156.2          38.28          54.39
    0.6146              -22.33          20.17          21.56          39.34         -14.94         -15.22          102.7          53.69          156.2          38.36          54.36
    0.6365              -22.39          20.18          21.56          39.34         -14.91          -15.2          102.7          53.57          156.2          38.44          54.33
    0.6585              -22.46          20.19          21.56          39.36         -14.87         -15.17          102.6          53.45          156.3          38.53           54.3
    0.6804              -22.54          20.21          21.57          39.37         -14.83         -15.14          102.5           53.3          156.3          38.63          54.26
    0.7024              -22.63          20.22          21.57          39.38         -14.78         -15.11          102.5          53.13          156.3          38.75          54.22
    0.7243              -22.74          20.24          21.58           39.4         -14.72         -15.07          102.4          52.94          156.4           38.9          54.17
    0.7463              -22.87          20.27          21.58          39.42         -14.66         -15.02          102.3          52.71          156.4          39.06          54.11
    0.7682              -23.02          20.29          21.59          39.44         -14.58         -14.97          102.2          52.44          156.5          39.26          54.04
    0.7902              -23.19          20.32           21.6          39.47         -14.48          -14.9          102.0          52.12          156.6          39.49          53.95
    0.8121              -23.41          20.36          21.61           39.5         -14.37         -14.83          101.8          51.73          156.7          39.77          53.85
    0.8341              -23.66          20.41          21.62          39.54         -14.23         -14.73          101.6          51.27          156.8           40.1          53.73
     0.856              -23.98          20.46          21.63          39.58         -14.07         -14.62          101.4           50.7          156.9          40.51          53.59
     0.878              -24.37          20.53          21.65          39.64         -13.86         -14.48          101.0           50.0          157.1          41.02           53.4
    0.8999              -24.85          20.62          21.67          39.72          -13.6          -14.3          100.6          49.12          157.3          41.65          53.18
    0.9219              -25.46          20.72           21.7          39.81         -13.28         -14.08          100.1          48.02          157.6          42.45          52.89
    0.9438              -26.24          20.86          21.73          39.92         -12.87          -13.8          99.48          46.62          158.0          43.46          52.53
    0.9658              -27.23          21.04          21.78          40.07         -12.34         -13.44          98.66          44.82          158.4          44.75          52.06
    0.9877               -28.5          21.26          21.83          40.26         -11.67         -12.98          97.61          42.52          159.0          46.41          51.47
      1.01              -30.13          21.55           21.9          40.51          -10.8         -12.39          96.26          39.58          159.7          48.53          50.71
     1.032              -32.17          21.91           22.0          40.82         -9.718         -11.65          94.56          35.89          160.7           51.2          49.75
     1.054              -34.66          22.35          22.11          41.19         -8.396         -10.75          92.49          31.38          161.8          54.45          48.58
     1.076              -37.55          22.86          22.23          41.63         -6.863         -9.699           90.1          26.16          163.1          58.22          47.23
     1.097              -40.68          23.41          22.37           42.1         -5.204         -8.565          87.51          20.51          164.5           62.3          45.76
     1.119              -43.81          23.96          22.51          42.57         -3.544         -7.431          84.91          14.85          165.9          66.38           44.3
     1.141               -46.7          24.47          22.64           43.0         -2.011         -6.384          82.52          9.633          167.2          70.15          42.94
     1.163              -49.19          24.91          22.75          43.37         -0.689         -5.481          80.45          5.128          168.4          73.41          41.78
     1.185              -51.23          25.28          22.84          43.68          0.396         -4.739          78.76          1.432          169.3          76.07          40.82
     1.207              -52.86          25.56          22.92          43.93          1.259          -4.15          77.41         -1.508          170.0           78.2          40.06
     1.229              -54.13          25.79          22.97          44.12          1.935         -3.688          76.35          -3.81          170.6          79.86          39.46
     1.251              -55.12          25.96          23.02          44.27          2.461         -3.329          75.53         -5.603          171.0          81.15           39.0
     1.273               -55.9           26.1          23.05          44.38          2.872         -3.048          74.89         -7.004          171.4          82.16          38.63
     1.295              -56.51          26.21          23.08          44.48          3.196         -2.827          74.38         -8.106          171.7          82.96          38.35
     1.317              -56.99          26.29           23.1          44.55          3.453         -2.651          73.98         -8.981          171.9          83.59          38.12
     1.339              -57.38          26.36          23.12          44.61          3.659          -2.51          73.66         -9.683          172.1           84.1          37.94
     1.361               -57.7          26.42          23.13          44.65          3.826         -2.396           73.4         -10.25          172.2          84.51          37.79
     1.383              -57.95          26.46          23.14          44.69          3.962         -2.303          73.18         -10.72          172.3          84.84          37.67
     1.405              -58.17           26.5          23.15          44.72          4.075         -2.226          73.01          -11.1          172.4          85.12          37.57
